# xmcd
#
# Track frame offsets: 
#        150
#        13808
#        27712
#        41000
#        55861
#        70731
#        84296
#        97449
#        112890
#        127332
#        140006
#        153426
#        169606
#        185252
#        200309
#        212126
#        228376
#        243642
#        258204
#        273016
#        286855
#        302057
#        314905
#        328807
#        343144
#
# Disc length: 4769 seconds
#
# Revision: 0
# Processed by: cddbd v1.5.2PL0 Copyright (c) Steve Scherf et al.
# Submitted via: ExactAudioCopy v0.99pb5
#
DISCID=7c129f19
DTITLE=Various Artist - Ain't times hard CD1
DYEAR=2008
DGENRE=Blues
TTITLE0=tom Dickson - Labor blues
TTITLE1=Blind Blake - No dough blues
TTITLE2=Scrapper Blackwell - Down and out blues
TTITLE3=Big Bill Broonzy - Starvation blues
TTITLE4=Barbecue Bob - Bad time blues
TTITLE5=Alec Johnson - Miss Meal cramp blues
TTITLE6=Hambone Willie Newbern - Shelby county workhouse blues
TTITLE7=Barbecue Bob - We sure got hard times
TTITLE8=Gene Campbell - Levee camp man blues
TTITLE9=Andy Chatman - Hard times on me blues
TTITLE10=Charley Jordan - Tough times blues
TTITLE11=Charlie McCoy and Bo Carter - Northern starvers are returning h
TTITLE11=ome
TTITLE12=Leroy Carr - Hard times done drove me to think
TTITLE13=Charley Jordan - Starvation blues
TTITLE14=Charley Spand - Hard time blues
TTITLE15=Bumble Bee Slim - Chain gang bound
TTITLE16=Charley Jordan - Days of the weeks blues
TTITLE17=King Solomon Hill - Times has done got so hard
TTITLE18=Carrie Edwards - Hard time blues
TTITLE19=Leroy Carr - The Depression Blues
TTITLE20=Tampa Red - Turpentine Blues
TTITLE21=Scrapper Blackwell - Hard time blues
TTITLE22=Fred McMullen - DeKalb Chain Gang
TTITLE23=Buddy Moss - Hard time blues
TTITLE24=Walter Roland - Red cross blues
EXTD=
EXTT0=
EXTT1=
EXTT2=
EXTT3=
EXTT4=
EXTT5=
EXTT6=
EXTT7=
EXTT8=
EXTT9=
EXTT10=
EXTT11=
EXTT12=
EXTT13=
EXTT14=
EXTT15=
EXTT16=
EXTT17=
EXTT18=
EXTT19=
EXTT20=
EXTT21=
EXTT22=
EXTT23=
EXTT24=
PLAYORDER=
